<svg id="Icon" xmlns="http://www.w3.org/2000/svg" width="1000" height="1000" viewBox="0 0 1000 1000">
  <defs>
    <style>
      .cls-1, .cls-2, .cls-3 {
        stroke: #000;
        stroke-width: 0px;
      }

      .cls-2 {
        fill: #fff;
      }

      .cls-2, .cls-3 {
        fill-rule: evenodd;
      }

      .cls-4 {
        fill: none;
        stroke: #fff;
        stroke-width: 44px;
      }
    </style>
  </defs>
  <rect id="Rectangle_arrondi_1" data-name="Rectangle arrondi 1" class="cls-1" width="1000" height="1000" rx="96" ry="96"/>
  <g id="Shop">
    <path id="Wall_L" data-name="Wall L" class="cls-2" d="M183.91,484.728H586.165a48,48,0,0,1,48,48V890.512a48,48,0,0,1-48,48H183.91a48,48,0,0,1-48-48V532.727A48,48,0,0,1,183.91,484.728Z"/>
    <path id="Wall_R" data-name="Wall R" class="cls-2" d="M838.587,484.728h1.378a22,22,0,0,1,22,22V916.512a22,22,0,0,1-22,22h-1.378a22,22,0,0,1-22-22V506.728A22,22,0,0,1,838.587,484.728Z"/>
    <path id="Door_frame_top" data-name="Door frame top" class="cls-2" d="M587,507.484H862v140H587v-140Z"/>
    <path id="Roof" class="cls-2" d="M180.975,212.457H819.9c24.059,0,47.989,16.4,53.6,37.195l49.733,184.289c7.46,27.645-9.774,50.787-38.737,50.787H115.345c-28.963,0-46.11-23.142-38.545-50.787l50.433-184.289C132.923,228.858,156.915,212.457,180.975,212.457Z"/>
    <path id="Wall_top" data-name="Wall top" class="cls-2" d="M135.91,484.728H861.965v45.378H135.91V484.728Z"/>
    <path id="Wall_top_shadow" data-name="Wall top shadow" class="cls-3" d="M135.91,484.728H861.965v22.689H135.91V484.728Z"/>
    <path id="Window" class="cls-3" d="M252.516,552.795H482.165a44,44,0,0,1,44,44v206.96a44,44,0,0,1-44,44H252.516a44,44,0,0,1-44-44V596.795A44,44,0,0,1,252.516,552.795Z"/>
    <path id="Door" class="cls-3" d="M678.165,575.484h93.514a44,44,0,0,1,44,44V894.512a44,44,0,0,1-44,44H678.165a44,44,0,0,1-44-44V619.484A44,44,0,0,1,678.165,575.484Z"/>
  </g>
  <g id="Shopping_handle" data-name="Shopping handle">
    <circle id="Handle_Top" data-name="Handle Top" class="cls-4" cx="498.5" cy="196.969" r="135.5"/>
    <rect id="Handle_L" data-name="Handle L" class="cls-4" x="363.2" y="210" width="0.1" height="71"/>
    <rect id="Handle_R" data-name="Handle R" class="cls-4" x="633.7" y="210" width="0.1" height="71"/>
    <circle id="Button_L" data-name="Button L" cx="363.2" cy="253.469" r="22"/>
    <circle id="Button_R" data-name="Button R" cx="633.7" cy="253.469" r="22"/>
  </g>
</svg>
